<svg width="23" height="23" viewBox="0 0 23 23" fill="none" xmlns="http://www.w3.org/2000/svg">
<circle cx="11.5" cy="11.5" r="11.5" fill="#60A8DE"/>
<path d="M5.19684 11.8002L7.73505 12.7516L8.71499 15.9283C8.77925 16.1299 9.02825 16.2105 9.1889 16.0734L10.6106 14.9124C10.7552 14.7915 10.9721 14.7834 11.1247 14.8963L13.679 16.7587C13.8557 16.8877 14.1047 16.791 14.1448 16.5733L16.0164 7.5432C16.0646 7.30938 15.8397 7.11588 15.6148 7.20457L5.18881 11.2439C4.93177 11.3407 4.9398 11.7035 5.19684 11.8002ZM8.56238 12.2518L13.5264 9.17991C13.6147 9.12347 13.7111 9.24441 13.6308 9.31697L9.53429 13.1386C9.38971 13.2757 9.30135 13.4531 9.26922 13.6466L9.13267 14.6867C9.11661 14.8237 8.92383 14.8398 8.88367 14.7028L8.34551 12.8081C8.28125 12.5984 8.3696 12.3646 8.56238 12.2518Z" fill="white"/>
</svg>
