<svg width="40" height="40" viewBox="0 0 40 40" fill="none" xmlns="http://www.w3.org/2000/svg">
<circle cx="20" cy="20" r="20" fill="#F2F2F2"/>
<path d="M26 18.7103C26.0019 18.6959 26.0019 18.6814 26 18.667C26 15.9103 23.6267 13.667 20.7067 13.667H19.2933C16.3733 13.667 14 15.9103 14 18.667C13.9981 18.6814 13.9981 18.6959 14 18.7103C13.714 18.7842 13.4605 18.9509 13.2795 19.1844C13.0985 19.4179 13.0002 19.7049 13 20.0003V21.667C13 22.0206 13.1405 22.3598 13.3905 22.6098C13.6406 22.8598 13.9797 23.0003 14.3333 23.0003H15C15 24.238 15.4917 25.425 16.3668 26.3002C17.242 27.1753 18.429 27.667 19.6667 27.667H20.3333C22.5367 27.667 24.2767 26.1737 24.6467 24.7803C25.046 24.6087 25.3964 24.3407 25.6667 24.0003C25.9023 23.6958 26.0312 23.3221 26.0333 22.937C26.3099 22.8579 26.5535 22.6915 26.7277 22.4626C26.9019 22.2337 26.9974 21.9546 27 21.667V20.0003C26.9998 19.7049 26.9015 19.4179 26.7205 19.1844C26.5395 18.9509 26.286 18.7842 26 18.7103ZM23.6667 23.2737C23.6673 23.5711 23.5641 23.8594 23.3748 24.0888C23.1856 24.3183 22.9221 24.4744 22.63 24.5303C22.2886 24.5932 21.9434 24.6333 21.5967 24.6503C21.5258 24.4605 21.3989 24.2967 21.2328 24.1807C21.0667 24.0646 20.8693 24.0017 20.6667 24.0003H19.3767C19.1402 23.9959 18.9094 24.073 18.723 24.2187C18.5366 24.3644 18.4061 24.5697 18.3533 24.8003C18.3237 24.9456 18.3267 25.0957 18.3622 25.2397C18.3977 25.3837 18.4648 25.518 18.5586 25.6329C18.6524 25.7477 18.7706 25.8403 18.9046 25.9038C19.0386 25.9674 19.185 26.0004 19.3333 26.0003H20.6667C20.873 25.9997 21.0741 25.9354 21.2424 25.816C21.4106 25.6967 21.5379 25.5282 21.6067 25.3337C22.1651 25.3265 22.7222 25.2775 23.2733 25.187C22.9325 25.6457 22.4892 26.0185 21.9787 26.2754C21.4683 26.5324 20.9048 26.6665 20.3333 26.667H19.6667C18.6942 26.667 17.7616 26.2807 17.0739 25.5931C16.3863 24.9054 16 23.9728 16 23.0003V20.0003H17C17 20.0003 17.8833 20.0003 18 18.8903C18.2189 19.2308 18.5197 19.5109 18.875 19.7048C19.2303 19.8988 19.6286 20.0004 20.0333 20.0003H23.6667V23.2737ZM24.94 18.667C24.7826 17.7356 24.3006 16.89 23.5795 16.2799C22.8584 15.6698 21.9446 15.3346 21 15.3337H19C18.0554 15.3346 17.1416 15.6698 16.4205 16.2799C15.6994 16.89 15.2174 17.7356 15.06 18.667H14.6667C14.6667 16.277 16.74 14.3337 19.2933 14.3337H20.7067C23.26 14.3337 25.3333 16.277 25.3333 18.667H24.94Z" fill="#C47344"/>
<circle cx="20" cy="20" r="15.5" stroke="black" stroke-opacity="0.15" stroke-dasharray="2 2"/>
</svg>
