<svg width="20" height="20" viewBox="0 0 20 20" fill="none" xmlns="http://www.w3.org/2000/svg">
<path d="M13.3862 10.0015L19.2982 4.08999C20.2336 3.15455 20.2336 1.63813 19.2982 0.70317C18.3637 -0.231786 16.8463 -0.231786 15.9118 0.70317L9.99988 6.61561L4.08791 0.70317C3.15344 -0.231786 1.63605 -0.231786 0.701576 0.70317C-0.233859 1.6386 -0.233859 3.15503 0.701576 4.08999L6.61306 10.0015L0.701576 15.913C-0.233859 16.8484 -0.233859 18.3648 0.701576 19.2998C1.16857 19.7677 1.78214 20.001 2.39475 20.001C3.00687 20.001 3.62092 19.7677 4.08791 19.2998L9.99988 13.3883L15.9118 19.3003C16.3793 19.7682 16.9924 20.0015 17.605 20.0015C18.2176 20.0015 18.8312 19.7682 19.2982 19.3003C20.2336 18.3648 20.2336 16.8484 19.2982 15.9134L13.3862 10.0015Z" fill="white"/>
</svg>
