<svg width="20" height="20" viewBox="0 0 20 20" fill="none" xmlns="http://www.w3.org/2000/svg">
<g clip-path="url(#clip0_313_3360)">
<path d="M18.1595 2.51074H1.84051C0.825664 2.51074 0 3.33637 0 4.3525C0 5.36734 0.825664 6.19301 1.84051 6.19301H18.1595C19.1743 6.19301 20 5.36734 20 4.3525C20 3.33637 19.1743 2.51074 18.1595 2.51074Z" fill="white"/>
<path d="M18.1595 8.15918H1.84051C0.825664 8.15918 0 8.9848 0 10.0009C0 11.0158 0.825664 11.8414 1.84051 11.8414H18.1595C19.1743 11.8414 20 11.0158 20 10.0009C20 8.9848 19.1743 8.15918 18.1595 8.15918Z" fill="white"/>
<path d="M18.1595 13.8076H1.84051C0.825664 13.8076 0 14.6333 0 15.6494C0 16.6642 0.825664 17.4899 1.84051 17.4899H18.1595C19.1743 17.4899 20 16.6642 20 15.6494C20 14.6333 19.1743 13.8076 18.1595 13.8076Z" fill="white"/>
</g>
<defs>
<clipPath id="clip0_313_3360">
<rect width="20" height="20" fill="white"/>
</clipPath>
</defs>
</svg>
