<svg width="186" height="41" viewBox="0 0 186 41" fill="none" xmlns="http://www.w3.org/2000/svg">
<circle cx="20.5" cy="20.5" r="20.5" fill="#FFB300"/>
<g clip-path="url(#clip0_5629_2)">
<rect width="41" height="41" rx="20" fill="white"/>
<rect x="0.5" y="0.5" width="40" height="40" fill="#C47344"/>
<rect x="0.5" y="0.5" width="40" height="40" stroke="#C47344"/>
<path d="M13.6944 28.2778C13.6944 28.2778 15.3319 28.9902 16.4167 29.179C19.6172 29.7357 21.3828 26.8198 24.5833 27.3765C25.6681 27.5653 27.3056 28.2778 27.3056 28.2778M11.75 20.5C11.75 20.5 13.8553 21.2124 15.25 21.4012C19.365 21.9579 21.635 19.0421 25.75 19.5987C27.1447 19.7876 29.25 20.5 29.25 20.5M13.6944 12.7222C13.6944 12.7222 15.3319 13.4347 16.4167 13.6234C19.6172 14.1802 21.3828 11.2642 24.5833 11.821C25.6681 12.0098 27.3056 12.7222 27.3056 12.7222M38 20.5C38 30.1651 30.1651 38 20.5 38C10.835 38 3 30.1651 3 20.5C3 10.835 10.835 3 20.5 3C30.1651 3 38 10.835 38 20.5Z" stroke="white" stroke-width="2.5" stroke-linecap="round" stroke-linejoin="round"/>
</g>
<path d="M69.158 11.38V27H64.868V20.884H59.632V27H55.342V11.38H59.632V17.144H64.868V11.38H69.158ZM77.0606 27.22C76.0486 27.22 75.1466 27.066 74.3546 26.758C73.5626 26.4353 72.8953 26.0027 72.3526 25.46C71.8246 24.9173 71.4213 24.294 71.1426 23.59C70.864 22.886 70.7246 22.1453 70.7246 21.368C70.7246 20.2533 70.9666 19.234 71.4506 18.31C71.9346 17.3713 72.646 16.6233 73.5846 16.066C74.5233 15.494 75.682 15.208 77.0606 15.208C78.4393 15.208 79.598 15.4867 80.5366 16.044C81.4753 16.6013 82.1866 17.3347 82.6706 18.244C83.1546 19.1533 83.3966 20.1433 83.3966 21.214C83.3966 21.434 83.382 21.6613 83.3526 21.896C83.338 22.116 83.316 22.314 83.2866 22.49H75.1686C75.198 22.9007 75.308 23.238 75.4986 23.502C75.704 23.7513 75.9533 23.9347 76.2466 24.052C76.5546 24.1693 76.87 24.228 77.1926 24.228C77.6473 24.228 78.0726 24.1253 78.4686 23.92C78.8793 23.7147 79.1506 23.4287 79.2826 23.062L82.8246 24.074C82.5166 24.69 82.084 25.2327 81.5266 25.702C80.984 26.1713 80.3386 26.5453 79.5906 26.824C78.8426 27.088 77.9993 27.22 77.0606 27.22ZM75.0806 19.982H78.9086C78.8646 19.6007 78.7546 19.278 78.5786 19.014C78.4173 18.75 78.1973 18.5447 77.9186 18.398C77.6546 18.2513 77.3466 18.178 76.9946 18.178C76.6426 18.178 76.3273 18.2513 76.0486 18.398C75.7846 18.5447 75.5646 18.75 75.3886 19.014C75.2273 19.278 75.1246 19.6007 75.0806 19.982ZM84.1309 23.502C84.1309 22.7247 84.3436 22.0427 84.7689 21.456C85.1942 20.8547 85.7809 20.3853 86.5289 20.048C87.2916 19.7107 88.1569 19.542 89.1249 19.542C89.5796 19.542 90.0049 19.5787 90.4009 19.652C90.8116 19.7253 91.1636 19.8353 91.4569 19.982V19.63C91.4569 19.0873 91.2956 18.684 90.9729 18.42C90.6649 18.156 90.1589 18.024 89.4549 18.024C88.8096 18.024 88.2009 18.134 87.6289 18.354C87.0716 18.5593 86.4849 18.8673 85.8689 19.278L84.6589 16.682C85.4362 16.1833 86.2502 15.8167 87.1009 15.582C87.9662 15.3327 88.8902 15.208 89.8729 15.208C91.7062 15.208 93.1216 15.626 94.1189 16.462C95.1309 17.2833 95.6369 18.508 95.6369 20.136V22.38C95.6369 22.776 95.6956 23.0547 95.8129 23.216C95.9302 23.3627 96.1356 23.4507 96.4289 23.48V27C96.0916 27.0733 95.7689 27.1247 95.4609 27.154C95.1676 27.198 94.9036 27.22 94.6689 27.22C93.9209 27.22 93.3489 27.088 92.9529 26.824C92.5716 26.5453 92.3222 26.142 92.2049 25.614L92.1169 25.196C91.6036 25.856 91.0096 26.362 90.3349 26.714C89.6602 27.0513 88.9416 27.22 88.1789 27.22C87.4162 27.22 86.7269 27.0587 86.1109 26.736C85.4949 26.4133 85.0109 25.9733 84.6589 25.416C84.3069 24.844 84.1309 24.206 84.1309 23.502ZM90.9069 23.788C91.0682 23.6707 91.2002 23.546 91.3029 23.414C91.4056 23.2673 91.4569 23.1207 91.4569 22.974V22.116C91.2222 22.028 90.9509 21.9547 90.6429 21.896C90.3496 21.8373 90.0856 21.808 89.8509 21.808C89.3522 21.808 88.9269 21.9327 88.5749 22.182C88.2376 22.4313 88.0689 22.7467 88.0689 23.128C88.0689 23.3333 88.1276 23.524 88.2449 23.7C88.3622 23.8613 88.5236 23.9933 88.7289 24.096C88.9342 24.184 89.1689 24.228 89.4329 24.228C89.6822 24.228 89.9389 24.1913 90.2029 24.118C90.4816 24.03 90.7162 23.92 90.9069 23.788ZM105.928 26.362C105.547 26.5233 105.136 26.6773 104.696 26.824C104.271 26.956 103.831 27.0587 103.376 27.132C102.936 27.2053 102.503 27.242 102.078 27.242C101.447 27.242 100.868 27.1393 100.34 26.934C99.8119 26.714 99.3866 26.362 99.0639 25.878C98.7559 25.3793 98.6019 24.712 98.6019 23.876V18.574H97.1719V15.428H98.6019V11.798H102.782V15.428H105.048V18.574H102.782V22.402C102.782 22.7833 102.863 23.0547 103.024 23.216C103.185 23.3627 103.405 23.436 103.684 23.436C103.889 23.436 104.124 23.3993 104.388 23.326C104.652 23.2527 104.916 23.1647 105.18 23.062L105.928 26.362ZM124.154 27V18.772L121.536 24.558H119.248L116.63 18.772V27H112.34V11.38H117.026L120.392 18.728L123.78 11.38H128.444V27H124.154ZM130.022 23.502C130.022 22.7247 130.234 22.0427 130.66 21.456C131.085 20.8547 131.672 20.3853 132.42 20.048C133.182 19.7107 134.048 19.542 135.016 19.542C135.47 19.542 135.896 19.5787 136.292 19.652C136.702 19.7253 137.054 19.8353 137.348 19.982V19.63C137.348 19.0873 137.186 18.684 136.864 18.42C136.556 18.156 136.05 18.024 135.346 18.024C134.7 18.024 134.092 18.134 133.52 18.354C132.962 18.5593 132.376 18.8673 131.76 19.278L130.55 16.682C131.327 16.1833 132.141 15.8167 132.992 15.582C133.857 15.3327 134.781 15.208 135.764 15.208C137.597 15.208 139.012 15.626 140.01 16.462C141.022 17.2833 141.528 18.508 141.528 20.136V22.38C141.528 22.776 141.586 23.0547 141.704 23.216C141.821 23.3627 142.026 23.4507 142.32 23.48V27C141.982 27.0733 141.66 27.1247 141.352 27.154C141.058 27.198 140.794 27.22 140.56 27.22C139.812 27.22 139.24 27.088 138.844 26.824C138.462 26.5453 138.213 26.142 138.096 25.614L138.008 25.196C137.494 25.856 136.9 26.362 136.226 26.714C135.551 27.0513 134.832 27.22 134.07 27.22C133.307 27.22 132.618 27.0587 132.002 26.736C131.386 26.4133 130.902 25.9733 130.55 25.416C130.198 24.844 130.022 24.206 130.022 23.502ZM136.798 23.788C136.959 23.6707 137.091 23.546 137.194 23.414C137.296 23.2673 137.348 23.1207 137.348 22.974V22.116C137.113 22.028 136.842 21.9547 136.534 21.896C136.24 21.8373 135.976 21.808 135.742 21.808C135.243 21.808 134.818 21.9327 134.466 22.182C134.128 22.4313 133.96 22.7467 133.96 23.128C133.96 23.3333 134.018 23.524 134.136 23.7C134.253 23.8613 134.414 23.9933 134.62 24.096C134.825 24.184 135.06 24.228 135.324 24.228C135.573 24.228 135.83 24.1913 136.094 24.118C136.372 24.03 136.607 23.92 136.798 23.788ZM148.471 27.22C147.459 27.22 146.462 27.0587 145.479 26.736C144.511 26.3987 143.69 25.9147 143.015 25.284L144.445 22.71C145.164 23.1793 145.853 23.546 146.513 23.81C147.188 24.074 147.797 24.206 148.339 24.206C148.647 24.206 148.875 24.1693 149.021 24.096C149.168 24.008 149.241 23.8687 149.241 23.678C149.241 23.546 149.19 23.436 149.087 23.348C148.985 23.26 148.816 23.172 148.581 23.084C148.361 22.996 148.075 22.9007 147.723 22.798C146.814 22.4753 146.051 22.1747 145.435 21.896C144.834 21.6173 144.379 21.28 144.071 20.884C143.778 20.4733 143.631 19.9307 143.631 19.256C143.631 18.464 143.829 17.7673 144.225 17.166C144.621 16.55 145.186 16.066 145.919 15.714C146.667 15.362 147.562 15.186 148.603 15.186C149.381 15.186 150.158 15.3107 150.935 15.56C151.727 15.7947 152.49 16.2273 153.223 16.858L151.639 19.41C150.906 18.9553 150.283 18.6327 149.769 18.442C149.271 18.2513 148.823 18.156 148.427 18.156C148.237 18.156 148.068 18.178 147.921 18.222C147.789 18.266 147.687 18.332 147.613 18.42C147.54 18.508 147.503 18.6253 147.503 18.772C147.503 18.9187 147.555 19.0433 147.657 19.146C147.76 19.234 147.921 19.322 148.141 19.41C148.361 19.4833 148.64 19.5713 148.977 19.674C149.975 19.9673 150.789 20.268 151.419 20.576C152.05 20.8693 152.512 21.2287 152.805 21.654C153.113 22.0793 153.267 22.6367 153.267 23.326C153.267 24.5433 152.835 25.4967 151.969 26.186C151.119 26.8753 149.953 27.22 148.471 27.22ZM162.84 26.362C162.459 26.5233 162.048 26.6773 161.608 26.824C161.183 26.956 160.743 27.0587 160.288 27.132C159.848 27.2053 159.415 27.242 158.99 27.242C158.359 27.242 157.78 27.1393 157.252 26.934C156.724 26.714 156.299 26.362 155.976 25.878C155.668 25.3793 155.514 24.712 155.514 23.876V18.574H154.084V15.428H155.514V11.798H159.694V15.428H161.96V18.574H159.694V22.402C159.694 22.7833 159.775 23.0547 159.936 23.216C160.097 23.3627 160.317 23.436 160.596 23.436C160.801 23.436 161.036 23.3993 161.3 23.326C161.564 23.2527 161.828 23.1647 162.092 23.062L162.84 26.362ZM169.594 27.22C168.582 27.22 167.68 27.066 166.888 26.758C166.096 26.4353 165.429 26.0027 164.886 25.46C164.358 24.9173 163.955 24.294 163.676 23.59C163.397 22.886 163.258 22.1453 163.258 21.368C163.258 20.2533 163.5 19.234 163.984 18.31C164.468 17.3713 165.179 16.6233 166.118 16.066C167.057 15.494 168.215 15.208 169.594 15.208C170.973 15.208 172.131 15.4867 173.07 16.044C174.009 16.6013 174.72 17.3347 175.204 18.244C175.688 19.1533 175.93 20.1433 175.93 21.214C175.93 21.434 175.915 21.6613 175.886 21.896C175.871 22.116 175.849 22.314 175.82 22.49H167.702C167.731 22.9007 167.841 23.238 168.032 23.502C168.237 23.7513 168.487 23.9347 168.78 24.052C169.088 24.1693 169.403 24.228 169.726 24.228C170.181 24.228 170.606 24.1253 171.002 23.92C171.413 23.7147 171.684 23.4287 171.816 23.062L175.358 24.074C175.05 24.69 174.617 25.2327 174.06 25.702C173.517 26.1713 172.872 26.5453 172.124 26.824C171.376 27.088 170.533 27.22 169.594 27.22ZM167.614 19.982H171.442C171.398 19.6007 171.288 19.278 171.112 19.014C170.951 18.75 170.731 18.5447 170.452 18.398C170.188 18.2513 169.88 18.178 169.528 18.178C169.176 18.178 168.861 18.2513 168.582 18.398C168.318 18.5447 168.098 18.75 167.922 19.014C167.761 19.278 167.658 19.6007 167.614 19.982ZM185.156 18.992C184.349 18.992 183.616 19.08 182.956 19.256C182.296 19.432 181.805 19.7253 181.482 20.136V27H177.302V15.428H181.13V17.628C181.541 16.8507 182.054 16.2567 182.67 15.846C183.286 15.4207 183.939 15.208 184.628 15.208C184.789 15.208 184.899 15.208 184.958 15.208C185.031 15.208 185.097 15.2153 185.156 15.23V18.992Z" fill="black"/>
<defs>
<clipPath id="clip0_5629_2">
<rect width="41" height="41" rx="20" fill="white"/>
</clipPath>
</defs>
</svg>
