<svg width="41" height="41" viewBox="0 0 41 41" fill="none" xmlns="http://www.w3.org/2000/svg">
<g clip-path="url(#clip0_5631_12)">
<rect width="41" height="41" rx="20" fill="white"/>
<rect x="0.5" y="0.5" width="40" height="40" fill="#C47344"/>
<rect x="0.5" y="0.5" width="40" height="40" stroke="#C47344"/>
<path d="M13.6944 28.2778C13.6944 28.2778 15.3319 28.9902 16.4167 29.179C19.6172 29.7357 21.3828 26.8198 24.5833 27.3765C25.6681 27.5653 27.3056 28.2778 27.3056 28.2778M11.75 20.5C11.75 20.5 13.8553 21.2124 15.25 21.4012C19.365 21.9579 21.635 19.0421 25.75 19.5987C27.1447 19.7876 29.25 20.5 29.25 20.5M13.6944 12.7222C13.6944 12.7222 15.3319 13.4347 16.4167 13.6234C19.6172 14.1802 21.3828 11.2642 24.5833 11.821C25.6681 12.0098 27.3056 12.7222 27.3056 12.7222M38 20.5C38 30.1651 30.1651 38 20.5 38C10.835 38 3 30.1651 3 20.5C3 10.835 10.835 3 20.5 3C30.1651 3 38 10.835 38 20.5Z" stroke="white" stroke-width="2.5" stroke-linecap="round" stroke-linejoin="round"/>
</g>
<defs>
<clipPath id="clip0_5631_12">
<rect width="41" height="41" rx="20" fill="white"/>
</clipPath>
</defs>
</svg>
